<mxfile host="65bd71144e">
    <diagram name="Page-1" id="pAyMm7ba5Ag2YW_VWn8T">
        <mxGraphModel dx="354" dy="390" grid="1" gridSize="10" guides="1" tooltips="1" connect="1" arrows="1" fold="1" page="1" pageScale="1" pageWidth="850" pageHeight="1100" background="none" math="0" shadow="0">
            <root>
                <mxCell id="0"/>
                <mxCell id="1" parent="0"/>
                <mxCell id="o_ELoP9tbolA2GfSfcip-9" style="edgeStyle=none;rounded=0;orthogonalLoop=1;jettySize=auto;html=1;endArrow=none;endFill=0;" parent="1" source="o_ELoP9tbolA2GfSfcip-2" target="o_ELoP9tbolA2GfSfcip-3" edge="1">
                    <mxGeometry relative="1" as="geometry"/>
                </mxCell>
                <mxCell id="o_ELoP9tbolA2GfSfcip-10" style="edgeStyle=none;rounded=0;orthogonalLoop=1;jettySize=auto;html=1;endArrow=none;endFill=0;" parent="1" source="o_ELoP9tbolA2GfSfcip-3" target="o_ELoP9tbolA2GfSfcip-1" edge="1">
                    <mxGeometry relative="1" as="geometry"/>
                </mxCell>
                <mxCell id="o_ELoP9tbolA2GfSfcip-11" value="&lt;font style=&quot;font-size: 24px;&quot;&gt;Laboratorio de Networking usando Centos9 y FRR&lt;/font&gt;" style="text;html=1;align=center;verticalAlign=middle;resizable=0;points=[];autosize=1;strokeColor=none;fillColor=none;" parent="1" vertex="1">
                    <mxGeometry x="140" y="120" width="560" height="40" as="geometry"/>
                </mxCell>
                <mxCell id="o_ELoP9tbolA2GfSfcip-13" value="" style="group" parent="1" vertex="1" connectable="0">
                    <mxGeometry x="145" y="360" width="70" height="115" as="geometry"/>
                </mxCell>
                <mxCell id="o_ELoP9tbolA2GfSfcip-2" value="" style="verticalLabelPosition=bottom;sketch=0;aspect=fixed;html=1;verticalAlign=top;strokeColor=none;align=center;outlineConnect=0;shape=mxgraph.citrix.tower_server;points=[];" parent="o_ELoP9tbolA2GfSfcip-13" vertex="1">
                    <mxGeometry x="5" width="65" height="85" as="geometry"/>
                </mxCell>
                <mxCell id="o_ELoP9tbolA2GfSfcip-4" value="server-1" style="text;html=1;align=center;verticalAlign=middle;resizable=0;points=[];autosize=1;strokeColor=none;fillColor=none;" parent="o_ELoP9tbolA2GfSfcip-13" vertex="1">
                    <mxGeometry y="85" width="70" height="30" as="geometry"/>
                </mxCell>
                <mxCell id="o_ELoP9tbolA2GfSfcip-14" value="" style="group" parent="1" vertex="1" connectable="0">
                    <mxGeometry x="415" y="250" width="70" height="115" as="geometry"/>
                </mxCell>
                <mxCell id="o_ELoP9tbolA2GfSfcip-3" value="" style="verticalLabelPosition=bottom;sketch=0;aspect=fixed;html=1;verticalAlign=top;strokeColor=none;align=center;outlineConnect=0;shape=mxgraph.citrix.tower_server;" parent="o_ELoP9tbolA2GfSfcip-14" vertex="1">
                    <mxGeometry x="5" width="65" height="85" as="geometry"/>
                </mxCell>
                <mxCell id="o_ELoP9tbolA2GfSfcip-5" value="server-2" style="text;html=1;align=center;verticalAlign=middle;resizable=0;points=[];autosize=1;strokeColor=none;fillColor=none;" parent="o_ELoP9tbolA2GfSfcip-14" vertex="1">
                    <mxGeometry y="85" width="70" height="30" as="geometry"/>
                </mxCell>
                <mxCell id="o_ELoP9tbolA2GfSfcip-15" value="" style="group" parent="1" vertex="1" connectable="0">
                    <mxGeometry x="650" y="340" width="70" height="115" as="geometry"/>
                </mxCell>
                <mxCell id="o_ELoP9tbolA2GfSfcip-1" value="" style="verticalLabelPosition=bottom;sketch=0;aspect=fixed;html=1;verticalAlign=top;strokeColor=none;align=center;outlineConnect=0;shape=mxgraph.citrix.tower_server;" parent="o_ELoP9tbolA2GfSfcip-15" vertex="1">
                    <mxGeometry x="2.5" width="65" height="85" as="geometry"/>
                </mxCell>
                <mxCell id="o_ELoP9tbolA2GfSfcip-6" value="server-3" style="text;html=1;align=center;verticalAlign=middle;resizable=0;points=[];autosize=1;strokeColor=none;fillColor=none;" parent="o_ELoP9tbolA2GfSfcip-15" vertex="1">
                    <mxGeometry y="85" width="70" height="30" as="geometry"/>
                </mxCell>
                <mxCell id="o_ELoP9tbolA2GfSfcip-16" value="&lt;div&gt;networkB&lt;/div&gt;&lt;div&gt;10.0.0.0/24&lt;br&gt;&lt;/div&gt;" style="text;html=1;align=center;verticalAlign=middle;resizable=0;points=[];autosize=1;strokeColor=none;fillColor=none;" parent="1" vertex="1">
                    <mxGeometry x="250" y="268" width="80" height="40" as="geometry"/>
                </mxCell>
                <mxCell id="o_ELoP9tbolA2GfSfcip-17" value=".101" style="text;html=1;align=center;verticalAlign=middle;resizable=0;points=[];autosize=1;strokeColor=none;fillColor=none;" parent="1" vertex="1">
                    <mxGeometry x="206" y="338" width="50" height="30" as="geometry"/>
                </mxCell>
                <mxCell id="o_ELoP9tbolA2GfSfcip-18" value=".102" style="text;html=1;align=center;verticalAlign=middle;resizable=0;points=[];autosize=1;strokeColor=none;fillColor=none;" parent="1" vertex="1">
                    <mxGeometry x="356" y="268" width="50" height="30" as="geometry"/>
                </mxCell>
                <mxCell id="o_ELoP9tbolA2GfSfcip-19" value="&lt;div&gt;networkC&lt;/div&gt;&lt;div&gt;10.100.0.0/24&lt;br&gt;&lt;/div&gt;" style="text;html=1;align=center;verticalAlign=middle;resizable=0;points=[];autosize=1;strokeColor=none;fillColor=none;" parent="1" vertex="1">
                    <mxGeometry x="530" y="268" width="100" height="40" as="geometry"/>
                </mxCell>
                <mxCell id="o_ELoP9tbolA2GfSfcip-20" value=".101" style="text;html=1;align=center;verticalAlign=middle;resizable=0;points=[];autosize=1;strokeColor=none;fillColor=none;" parent="1" vertex="1">
                    <mxGeometry x="485" y="273" width="50" height="30" as="geometry"/>
                </mxCell>
                <mxCell id="o_ELoP9tbolA2GfSfcip-21" value=".102" style="text;html=1;align=center;verticalAlign=middle;resizable=0;points=[];autosize=1;strokeColor=none;fillColor=none;" parent="1" vertex="1">
                    <mxGeometry x="600" y="330" width="50" height="30" as="geometry"/>
                </mxCell>
                <mxCell id="o_ELoP9tbolA2GfSfcip-22" value="&lt;div&gt;networkA1:&amp;nbsp; 192.168.100.0/24&lt;/div&gt;&lt;div&gt;&lt;div&gt;networkA2:&amp;nbsp; 192.168.101.0/24&lt;/div&gt;&lt;div&gt;&lt;div&gt;networkA3:&amp;nbsp; 192.168.102.0/24&lt;/div&gt;&lt;/div&gt;&lt;/div&gt;" style="text;html=1;align=center;verticalAlign=middle;resizable=0;points=[];autosize=1;strokeColor=none;fillColor=none;" parent="1" vertex="1">
                    <mxGeometry x="90" y="500" width="180" height="60" as="geometry"/>
                </mxCell>
                <mxCell id="o_ELoP9tbolA2GfSfcip-24" value="&lt;div&gt;networkD1:&amp;nbsp; 192.168.200.0/24&lt;/div&gt;&lt;div&gt;&lt;div&gt;networkD2:&amp;nbsp; 192.168.201.0/24&lt;/div&gt;&lt;div&gt;&lt;div&gt;networkD3:&amp;nbsp; 192.168.202.0/24&lt;/div&gt;&lt;/div&gt;&lt;/div&gt;" style="text;html=1;align=center;verticalAlign=middle;resizable=0;points=[];autosize=1;strokeColor=none;fillColor=none;" parent="1" vertex="1">
                    <mxGeometry x="645" y="500" width="180" height="60" as="geometry"/>
                </mxCell>
                <mxCell id="o_ELoP9tbolA2GfSfcip-26" style="edgeStyle=none;rounded=0;orthogonalLoop=1;jettySize=auto;html=1;entryX=0.183;entryY=-0.05;entryDx=0;entryDy=0;entryPerimeter=0;" parent="1" source="o_ELoP9tbolA2GfSfcip-2" target="o_ELoP9tbolA2GfSfcip-22" edge="1">
                    <mxGeometry relative="1" as="geometry"/>
                </mxCell>
                <mxCell id="o_ELoP9tbolA2GfSfcip-27" value=".1" style="text;html=1;align=center;verticalAlign=middle;resizable=0;points=[];autosize=1;strokeColor=none;fillColor=none;" parent="1" vertex="1">
                    <mxGeometry x="145" y="475" width="30" height="30" as="geometry"/>
                </mxCell>
                <mxCell id="o_ELoP9tbolA2GfSfcip-28" value=".1" style="text;html=1;align=center;verticalAlign=middle;resizable=0;points=[];autosize=1;strokeColor=none;fillColor=none;" parent="1" vertex="1">
                    <mxGeometry x="720" y="470" width="30" height="30" as="geometry"/>
                </mxCell>
                <mxCell id="o_ELoP9tbolA2GfSfcip-29" style="edgeStyle=none;rounded=0;orthogonalLoop=1;jettySize=auto;html=1;entryX=0.628;entryY=-0.083;entryDx=0;entryDy=0;entryPerimeter=0;" parent="1" source="o_ELoP9tbolA2GfSfcip-1" target="o_ELoP9tbolA2GfSfcip-24" edge="1">
                    <mxGeometry relative="1" as="geometry"/>
                </mxCell>
                <mxCell id="o_ELoP9tbolA2GfSfcip-30" value="&lt;div align=&quot;left&quot;&gt;Instalar FRR y configurar protocolo RIP para divulgacion de redes A y&amp;nbsp; redes D,&amp;nbsp;&amp;nbsp;&lt;/div&gt;&lt;div align=&quot;left&quot;&gt;y que se pueda enrutar trafico de manera dinamica entre las redes del diagrama.&lt;/div&gt;" style="text;html=1;align=left;verticalAlign=middle;resizable=0;points=[];autosize=1;strokeColor=none;fillColor=none;" parent="1" vertex="1">
                    <mxGeometry x="180" y="170" width="450" height="40" as="geometry"/>
                </mxCell>
                <mxCell id="o_ELoP9tbolA2GfSfcip-31" value="&lt;div align=&quot;left&quot;&gt;server-1:&lt;/div&gt;&lt;div align=&quot;left&quot;&gt;&lt;br&gt;&lt;/div&gt;&lt;div align=&quot;left&quot;&gt;vtysh&lt;/div&gt;&lt;div align=&quot;left&quot;&gt;configure terminal&lt;br&gt;ip forwarding&lt;br&gt;router rip&lt;br&gt;&amp;nbsp;network 10.0.0.0/24&lt;br&gt;&amp;nbsp;network 192.168.100.0/24&lt;br&gt;&amp;nbsp;network 192.168.101.0/24&lt;br&gt;&amp;nbsp;network 192.168.102.0/24&lt;/div&gt;&lt;div align=&quot;left&quot;&gt;&amp;nbsp;exit&lt;br&gt;exit&lt;br&gt;&lt;div&gt;write memory &lt;br&gt;&lt;/div&gt;&lt;/div&gt;" style="text;html=1;align=center;verticalAlign=middle;resizable=0;points=[];autosize=1;strokeColor=default;fillColor=none;" parent="1" vertex="1">
                    <mxGeometry x="95" y="585" width="170" height="200" as="geometry"/>
                </mxCell>
                <mxCell id="o_ELoP9tbolA2GfSfcip-32" value="&lt;div align=&quot;left&quot;&gt;server-2:&lt;/div&gt;&lt;div align=&quot;left&quot;&gt;&lt;br&gt;&lt;/div&gt;&lt;div align=&quot;left&quot;&gt;vtysh&lt;/div&gt;&lt;div align=&quot;left&quot;&gt;configure terminal&lt;br&gt;ip forwarding&lt;br&gt;router rip&lt;br&gt;&amp;nbsp;network 10.0.0.0/24&lt;br&gt;&amp;nbsp;network 10.100.0.0/24&lt;/div&gt;&lt;div align=&quot;left&quot;&gt;&amp;nbsp;exit&lt;br&gt;exit&lt;br&gt;&lt;div&gt;write memory &lt;br&gt;&lt;/div&gt;&lt;/div&gt;" style="text;html=1;align=center;verticalAlign=middle;resizable=0;points=[];autosize=1;strokeColor=default;fillColor=none;" parent="1" vertex="1">
                    <mxGeometry x="380" y="585" width="150" height="170" as="geometry"/>
                </mxCell>
                <mxCell id="o_ELoP9tbolA2GfSfcip-33" value="&lt;div align=&quot;left&quot;&gt;server-3:&lt;/div&gt;&lt;div align=&quot;left&quot;&gt;&lt;br&gt;&lt;/div&gt;&lt;div align=&quot;left&quot;&gt;vtysh&lt;/div&gt;&lt;div align=&quot;left&quot;&gt;configure terminal&lt;br&gt;ip forwarding&lt;br&gt;router rip&lt;br&gt;&amp;nbsp;network 10.100.0.0/24&lt;br&gt;&amp;nbsp;network 192.168.200.0/24&lt;/div&gt;&lt;div align=&quot;left&quot;&gt;&amp;nbsp;network 192.168.201.0/24&lt;/div&gt;&lt;div align=&quot;left&quot;&gt;&amp;nbsp;network 192.168.202.0/24&lt;br&gt;&lt;/div&gt;&lt;div align=&quot;left&quot;&gt;&amp;nbsp;exit&lt;/div&gt;&lt;div align=&quot;left&quot;&gt;exit&lt;br&gt;&lt;div&gt;write memory &lt;br&gt;&lt;/div&gt;&lt;/div&gt;" style="text;html=1;align=center;verticalAlign=middle;resizable=0;points=[];autosize=1;strokeColor=default;fillColor=none;" parent="1" vertex="1">
                    <mxGeometry x="645" y="585" width="170" height="200" as="geometry"/>
                </mxCell>
            </root>
        </mxGraphModel>
    </diagram>
</mxfile>